<svg id="Layer_1" data-name="Layer 1" xmlns="http://www.w3.org/2000/svg" viewBox="0 0 466.6396 461.2124">
    <path d="M462.06,211.1226a37.5747,37.5747,0,0,1,1.95,4.17A41.64,41.64,0,0,0,462.06,211.1226Z" style="fill:#495C6F" />
    <path d="M466.2,223.4524c.14.88.24,1.78.31,2.68C466.44,225.2324,466.34,224.3423,466.2,223.4524Z" style="fill:#495C6F" />
    <path d="M466.64,229.2424c0,.91-.03,1.8-.1,2.7-.01.23-.03.46-.05.69-.06.7-.14,1.39-.25,2.08-.04.29-.08.57-.13.86a38.3235,38.3235,0,0,1-2.61,8.8c-.12.28-.25.56-.38.84s-.27.56-.4.84a38.0114,38.0114,0,0,1-7.21,10.03l-.92.92-193.07,193.08a38,38,0,0,1-53.74-53.74l129.09-129.1H38a38,38,0,0,1,0-76H336.93L210.55,64.8726a38.0035,38.0035,0,1,1,53.74-53.75l191.22,191.22c.186.1863.3515.3843.5327.573.1152.12.2261.2439.3393.3652.48.5127.95,1.03,1.3951,1.5613.0747.0889.144.1821.2177.2717.4737.576.9366,1.157,1.3706,1.7532l.0186.0273a37.5823,37.5823,0,0,1,2.6763,4.2286,41.64,41.64,0,0,1,1.95,4.17c.12.33.24.66.37.99.09.25.18.51.26.77.1.29.2.59.29.89a37.3139,37.3139,0,0,1,1.27,5.51c.14.88.24,1.78.31,2.68.04.39.06.77.08,1.15q.0147.405.03.81C466.63,228.4724,466.64,228.8623,466.64,229.2424Z" style="fill:#495C6F" />
    <path d="M462.72,246.0525q-.339.6855-.708,1.36C462.2559,246.9641,462.4941,246.5117,462.72,246.0525Z" style="fill:#495C6F" />
    <path d="M455.51,256.0825a38.0838,38.0838,0,0,0,6.5019-8.67,37.8722,37.8722,0,0,1-7.4219,9.59Z" style="fill:#495C6F" />
    <path d="M463.5,244.3726a38.3235,38.3235,0,0,0,2.61-8.8A36.84,36.84,0,0,1,463.5,244.3726Z" style="fill:#495C6F" />
</svg>