<svg id="Layer_1" data-name="Layer 1" xmlns="http://www.w3.org/2000/svg" xmlns:xlink="http://www.w3.org/1999/xlink" viewBox="0 0 512 512"><defs><clipPath id="clip-path"><circle cx="255.9204" cy="255.8806" r="218.8575" style="fill:none"/></clipPath><clipPath id="clip-path-2"><rect x="-10585.9459" y="-4205.4464" width="24242.6824" height="13468.1569" style="fill:none"/></clipPath><clipPath id="clip-path-3"><path d="M255.6455,322.4976l51.212-50.4165a16.8352,16.8352,0,0,0,.1863-23.8079q-.0924-.0939-.1863-.1863l-51.212-50.4164a17.3233,17.3233,0,0,0-24.1826,0,16.676,16.676,0,0,0,0,23.8122l39.2157,38.6013-39.2157,38.61a16.6462,16.6462,0,0,0,0,23.8038A17.3075,17.3075,0,0,0,255.6455,322.4976Z" style="fill:none"/></clipPath></defs><g style="clip-path:url(#clip-path)"><g style="clip-path:url(#clip-path-2)"><g style="opacity:0.20000000298023224"><path d="M255.92,491.5729A235.6923,235.6923,0,0,1,89.261,89.22,235.6927,235.6927,0,0,1,422.58,422.5407,234.1491,234.1491,0,0,1,255.92,491.5729Zm0-437.7148c-111.3955,0-202.0224,90.6269-202.0224,202.0224S144.5246,457.903,255.92,457.903s202.0225-90.627,202.0225-202.0225S367.3157,53.8581,255.92,53.8581Z" style="fill:#626f86"/></g></g></g><g style="clip-path:url(#clip-path-3)"><g style="clip-path:url(#clip-path-2)"><rect x="207.9613" y="174.2783" width="122.4407" height="171.6199" style="fill:#626f86"/></g></g></svg>