<svg id="Layer_1" data-name="Layer 1" xmlns="http://www.w3.org/2000/svg" viewBox="0 0 512 512"><defs><style>.cls-1{fill:none;}</style></defs><path d="M425.59,86.4A239.84,239.84,0,1,0,86.4,425.59,239.84,239.84,0,1,0,425.59,86.4ZM256,453.84C146.9,453.84,58.15,365.09,58.15,256S146.9,58.15,256,58.15,453.84,146.9,453.84,256,365.09,453.84,256,453.84Z"/><path d="M277,202.06V373.45a21,21,0,1,1-42,0V202.06a21,21,0,0,1,42,0Z"/><path d="M277,138.54v.16a21,21,0,0,1-42,0v-.16a21,21,0,0,1,42,0Z"/><rect class="cls-1" width="512" height="512"/></svg>