<svg id="Layer_1" data-name="Layer 1" xmlns="http://www.w3.org/2000/svg" xmlns:xlink="http://www.w3.org/1999/xlink" viewBox="0 0 161.9835 191.6009"><defs><clipPath id="clip-path"><polygon points="103.924 6.207 130.724 6.507 133.724 44.507 106.724 44.707 103.924 6.207" style="fill:none"/></clipPath><clipPath id="clip-path-2"><polygon points="107.624 3.407 134.424 3.707 137.524 41.707 110.424 42.007 107.624 3.407" style="fill:none"/></clipPath></defs><path d="M143.2463,117.7069c0,36.2-30.8,72.2-70,70.6-33.3-1.3-63.1-30.9-64.4-67.1-1.4-40.7,33.2-74.1,68.8-74.1C109.9463,47.1069,143.2463,84.8069,143.2463,117.7069Z" style="fill:#a06500"/><path d="M145.8463,111.8069c0,36.2-25.1,67.1-64.4,67.1-35.6,0-63.1-30.9-64.4-67.1-1.4-40.7,28.8-67.1,64.4-67.1C113.7463,44.7069,145.8463,78.9069,145.8463,111.8069Z" style="fill:#f49c06"/><path d="M115.3243,7.1069s2.1-2.8,4.6-3.5l-2.3,3.5Z" style="fill:#a06500"/><path d="M122.1243,44.6069c.1,0,3.1.5,4.7-3.2l-3.2-1Z" style="fill:#a06500"/><g style="clip-path:url(#clip-path)"><path d="M117.2243,28.9069h-9.8a1.6894,1.6894,0,0,1-1-.3,2.1447,2.1447,0,0,1-1-1.6,1.803,1.803,0,0,1,.2-1l9.6-18.7a1.4193,1.4193,0,0,1,.9-.8,2.0451,2.0451,0,0,1,1.1,0,2.286,2.286,0,0,1,1,.7,1.9217,1.9217,0,0,1,.4,1.2l.2,9.9a2.3535,2.3535,0,0,0,.2.8c.1.2.2.5.4.6a2.092,2.092,0,0,0,.6.4,1.8539,1.8539,0,0,0,.7.2h9.3a2.92,2.92,0,0,1,.9.2,4.3494,4.3494,0,0,1,.7.6,1.6122,1.6122,0,0,1,.3.9,3.7513,3.7513,0,0,1-.1,1l-8.3,20.6a1.5691,1.5691,0,0,1-1.9,1,2.0749,2.0749,0,0,1-1-.6,1.8455,1.8455,0,0,1-.5-1.2l-.9-11.9a1.4453,1.4453,0,0,0-.2-.7c-.1-.2-.3-.4-.4-.6a2.092,2.092,0,0,0-.6-.4.9124.9124,0,0,0-.8-.3" style="fill:#a06500"/></g><g style="clip-path:url(#clip-path-2)"><path d="M120.9243,26.1069h-9.8a1.6894,1.6894,0,0,1-1-.3,2.3354,2.3354,0,0,1-1-1.6,1.803,1.803,0,0,1,.2-1l9.6-18.8a1.4193,1.4193,0,0,1,.9-.8,2.0451,2.0451,0,0,1,1.1,0,1.6907,1.6907,0,0,1,1,.7,1.7458,1.7458,0,0,1,.4,1.2l.2,9.9a2.3535,2.3535,0,0,0,.2.8,2.1321,2.1321,0,0,0,1,1.1,1.8544,1.8544,0,0,0,.7.2h9.3a2.9192,2.9192,0,0,1,.9.2,4.3548,4.3548,0,0,1,.7.6,1.6128,1.6128,0,0,1,.3.9,3.7513,3.7513,0,0,1-.1,1l-8.3,20.6a1.5689,1.5689,0,0,1-1.9,1,2.0745,2.0745,0,0,1-1-.6,1.845,1.845,0,0,1-.5-1.2l-.9-11.9a1.4442,1.4442,0,0,0-.2-.7c-.1-.2-.3-.4-.4-.6a2.0924,2.0924,0,0,0-.6-.4,1.33,1.33,0,0,0-.8-.3" style="fill:#f49c06"/></g><g id="Path_3295" data-name="Path 3295"><path d="M87.4742,91.3068v3.7c0,1.2-.1,2.5-.1,3.8s-.1,2.5-.2,3.8c-.1,1.2-.1,2.5-.2,3.7s-.2,2.5-.3,3.7c-.1,1.3-.2,2.5-.3,3.8s-.2,2.5-.4,3.8c-.1,1.3-.3,2.5-.5,3.7a5.4372,5.4372,0,0,1-1.8,3.3,5.1667,5.1667,0,0,1-3.2,1.1,5.4522,5.4522,0,0,1-3.3-1.1,6.1761,6.1761,0,0,1-2.3-3.2c-.7-2.5-1.4-5-2-7.5s-1.2-5-1.8-7.6c-.5-2.6-1-5-1.5-7.6s-.9-5-1.3-7.5c-.1-.8-.2-1.7-.3-2.5a21.1353,21.1353,0,0,1-.2-2.5c0-.8-.1-1.7-.1-2.5a20.9863,20.9863,0,0,1,.1-2.5,8.7932,8.7932,0,0,1,1-3.6,8.3776,8.3776,0,0,1,5.4-4.3,7.7321,7.7321,0,0,1,3.7-.1,10.6107,10.6107,0,0,1,3,1,8.7591,8.7591,0,0,1,2.4,1.9,11.5966,11.5966,0,0,1,3,5.4c.2.8.3,1.6.5,2.5.1.8.2,1.6.3,2.5.1.8.1,1.6.2,2.5a19.4114,19.4114,0,0,1,.1982,2.3007" style="fill:#a06500"/></g><g id="Path_3296" data-name="Path 3296"><path d="M91.1734,87.007v3.6c0,1.2-.1,2.5-.1,3.8s-.1,2.5-.2,3.8c-.1,1.2-.1,2.5-.2,3.7,0,1.2-.2,2.4-.3,3.7s-.2,2.5-.3,3.8-.2,2.5-.4,3.8-.3,2.5-.5,3.7a4.9466,4.9466,0,0,1-1.8,3.2,5.0991,5.0991,0,0,1-3.1,1.1,5.4522,5.4522,0,0,1-3.3-1.1,6.1761,6.1761,0,0,1-2.3-3.2c-.7-2.5-1.4-5-2-7.4q-.8994-3.75-1.8-7.5c-.6-2.5-1-5-1.5-7.6s-.9-5-1.3-7.5c-.1-.8-.2-1.7-.3-2.5s-.1-1.7-.2-2.5a19.97,19.97,0,0,1-.1-2.5,20.9855,20.9855,0,0,1,.1-2.5,8.7941,8.7941,0,0,1,1-3.6,7.9982,7.9982,0,0,1,5.3-4.2,9.24,9.24,0,0,1,3.7-.1,10.6107,10.6107,0,0,1,3,1,8.7606,8.7606,0,0,1,2.4,1.9,11.7818,11.7818,0,0,1,1.9,2.5,10.1814,10.1814,0,0,1,1.1,2.9c.2.8.3,1.6.5,2.5.1.8.2,1.6.3,2.5.1.8.1,1.6.2,2.5a7.5706,7.5706,0,0,1,.1982,2.2007" style="fill:#fff"/></g><g id="Path_3297" data-name="Path 3297"><path d="M89.6734,142.8068a6.9126,6.9126,0,0,1-.4,3.2,7.2128,7.2128,0,0,1-1.4,2.6,6.7353,6.7353,0,0,1-5.3,2.5,8.15,8.15,0,0,1-3.1-.6,7.8065,7.8065,0,0,1-2.6-1.7,8.5573,8.5573,0,0,1-2.7-5.8,6.9126,6.9126,0,0,1,.4-3.2,6.14,6.14,0,0,1,1.5-2.6,7.6078,7.6078,0,0,1,5.3-2.5,8.15,8.15,0,0,1,3.1.6,8.9792,8.9792,0,0,1,2.6,1.7,10.5908,10.5908,0,0,1,2.6006,5.8" style="fill:#a06500"/></g><g id="Path_3298" data-name="Path 3298"><path d="M93.3736,138.4069a8.5359,8.5359,0,0,1-.3,3.2,6.8085,6.8085,0,0,1-1.5,2.6,6.7353,6.7353,0,0,1-5.3,2.5,8.15,8.15,0,0,1-3.1-.6,8.9792,8.9792,0,0,1-2.6-1.7,8.5573,8.5573,0,0,1-2.7-5.8,6.9126,6.9126,0,0,1,.4-3.2,6.8085,6.8085,0,0,1,1.5-2.6,7.1461,7.1461,0,0,1,8.3-1.9,8.9792,8.9792,0,0,1,2.6,1.7,9.8013,9.8013,0,0,1,2.6992,5.8" style="fill:#fff"/></g></svg>