<svg id="Layer_1" data-name="Layer 1" xmlns="http://www.w3.org/2000/svg" xmlns:xlink="http://www.w3.org/1999/xlink" viewBox="0 0 200 100.0002">
    <defs>
        <clipPath id="clip-path">
            <path d="M338.74,34.25v9.69h-86.563V26.9982a4.3919,4.3919,0,0,1,4.1612-4.5908h31.57a4.3919,4.3919,0,0,1,4.1612,4.5908v.3886a1.7034,1.7034,0,0,0,1.6134,1.7805h40.4647A4.8648,4.8648,0,0,1,338.74,34.25" style="fill:none;clip-rule:evenodd" />
        </clipPath>
        <clipPath id="clip-path-2">
            <path d="M334.1847,40.506V37.6039a3.7716,3.7716,0,0,0-3.7711-3.771H260.4529A3.7307,3.7307,0,0,0,256.895,36.44a3.9536,3.9536,0,0,0-.1639,1.0986V40.506" style="fill:none;clip-rule:evenodd" />
        </clipPath>
        <clipPath id="clip-path-3">
            <path d="M344.1129,80.5774V83.14h-2.7045V80.72A3.9315,3.9315,0,0,0,340.246,77.92a3.9086,3.9086,0,0,0-3.1078-1.15,4.1194,4.1194,0,0,0-3.6533,4.199V83.14H330.78V80.5774a6.6629,6.6629,0,0,1,10.8534-5.1836,4.9922,4.9922,0,0,1,.5338.4626,6.7016,6.7016,0,0,1,1.9453,4.721" style="fill:none;clip-rule:evenodd" />
        </clipPath>
        <clipPath id="clip-path-4">
            <path d="M339.0293,88.8742a1.5823,1.5823,0,1,1-1.5823-1.5823,1.5819,1.5819,0,0,1,1.5823,1.5823" style="fill:none;clip-rule:evenodd" />
        </clipPath>
        <clipPath id="clip-path-5">
            <path d="M337.4469,94.8935a.5933.5933,0,0,1-.5931-.5931V89.5985a.5931.5931,0,1,1,1.1862,0V94.3a.5933.5933,0,0,1-.5931.5931" style="fill:none;clip-rule:evenodd" />
        </clipPath>
        <clipPath id="clip-path-6">
            <path d="M123.3984,30.626a21.9686,21.9686,0,0,1,1.1,6.87v21.91h-3.42l-1.97-4.68-7.45-17.64-2.66-6.31-6.41-15.19a21.9109,21.9109,0,0,1,20.81,15.04" style="fill:none;clip-rule:evenodd" />
        </clipPath>
        <clipPath id="clip-path-7">
            <rect x="-1204.9998" y="-366" width="1440" height="797" style="fill:none" />
        </clipPath>
        <clipPath id="clip-path-8">
            <polygon points="135.128 23.406 135.128 24.656 128.398 24.656 128.398 23.406 130.558 23.406 130.558 15.586 132.968 15.586 132.968 23.406 135.128 23.406" style="fill:none;clip-rule:evenodd" />
        </clipPath>
        <clipPath id="clip-path-10">
            <path d="M124.4984,37.496v21.91h-43.82V37.496a21.91,21.91,0,1,1,43.82,0" style="fill:none;clip-rule:evenodd" />
        </clipPath>
        <clipPath id="clip-path-12">
            <rect x="39.0002" width="121.938" height="99.856" style="fill:none" />
        </clipPath>
        <clipPath id="clip-path-13">
            <rect x="48.0002" width="113" height="100" style="fill:none" />
        </clipPath>
        <clipPath id="clip-path-14">
            <rect x="138.8582" y="59.406" width="8.47" height="40.45" style="fill:none" />
        </clipPath>
        <clipPath id="clip-path-15">
            <rect x="130.5582" y="0.926" width="2.41" height="22.48" style="fill:none" />
        </clipPath>
        <clipPath id="clip-path-16">
            <rect x="130.5592" y="0.929" width="8.303" height="6.194" style="fill:none" />
        </clipPath>
        <clipPath id="clip-path-17">
            <path d="M160.9384,37.496v21.91h-36.44V37.496a21.8923,21.8923,0,0,0-21.91-21.91h27.97v7.82h-2.16v1.25h6.73v-1.25h-2.16v-7.82h6.06a21.9193,21.9193,0,0,1,21.91,21.91" style="fill:none;clip-rule:evenodd" />
        </clipPath>
        <clipPath id="clip-path-18">
            <rect x="39.0002" width="122" height="100" style="fill:none" />
        </clipPath>
        <clipPath id="clip-path-19">
            <path d="M56.5586,7q-.4471,1.832-.8935,3.6639a4.3628,4.3628,0,0,1,1.5774.472,4.0206,4.0206,0,0,1,1.7052,1.686q-1.2154,1.2588-2.43,2.5176c-3.3383-.1665-6.1653-1.56-6.7-3.1086C49.169,10.3564,51.5879,7.4068,56.5586,7" style="fill:none;clip-rule:evenodd" />
        </clipPath>
        <clipPath id="clip-path-21">
            <path d="M49.3521,15.61a1.0162,1.0162,0,0,1-.35-.6348,1.11,1.11,0,0,1,.788-1.0868c.6251-.1145,1.332.7,2.0174,1.7431a50.3163,50.3163,0,0,0,3.151,4.3679c.0662.0736-5.6062-4.3894-5.6062-4.3894" style="fill:none;clip-rule:evenodd" />
        </clipPath>
        <clipPath id="clip-path-23">
            <path d="M58.5877,13.4545c1.1782,1.6056,1.25,2.6641,1.0273,3.3666-.53,1.6643-3.22,2.902-3.22,2.902-3.7583-1.7283-6.0879-4.7671-5.6553-6.9577.5248-2.653,5.3372-5.2621,11.3783-3.5123Z" style="fill:none;clip-rule:evenodd" />
        </clipPath>
        <clipPath id="clip-path-26">
            <polygon points="147.328 59.406 138.858 59.406 147.328 90.618 147.328 59.406" style="fill:none;clip-rule:evenodd" />
        </clipPath>
    </defs>
    <g style="clip-path:url(#clip-path-6)">
        <g style="clip-path:url(#clip-path-7)">
            <rect x="101.5884" y="14.586" width="23.91" height="45.82" style="fill:#aebbce" />
        </g>
    </g>
    <g style="clip-path:url(#clip-path-8)">
        <g style="clip-path:url(#clip-path-7)">
            <rect x="127.3984" y="14.586" width="8.73" height="11.07" style="fill:#f7f8fc" />
        </g>
    </g>
    <g style="clip-path:url(#clip-path-10)">
        <g style="clip-path:url(#clip-path-7)">
            <rect x="79.6784" y="14.586" width="45.82" height="45.82" style="fill:#212c3d" />
        </g>
    </g>
    <g style="clip-path:url(#clip-path-12)">
        <g style="clip-path:url(#clip-path-13)">
            <g style="clip-path:url(#clip-path-14)">
                <rect x="137.8582" y="58.406" width="10.47" height="42.45" style="fill:#aebbce" />
            </g>
            <g style="clip-path:url(#clip-path-15)">
                <rect x="129.5582" y="-0.074" width="4.41" height="24.48" style="fill:#212c3d" />
            </g>
            <g style="clip-path:url(#clip-path-16)">
                <rect x="129.5592" y="-0.071" width="10.303" height="8.194" style="fill:#212c3d" />
            </g>
            <g style="clip-path:url(#clip-path-17)">
                <g style="clip-path:url(#clip-path-18)">
                    <rect x="101.5884" y="14.586" width="60.35" height="45.82" style="fill:#f3f6fc" />
                </g>
            </g>
            <g style="clip-path:url(#clip-path-19)">
                <g style="clip-path:url(#clip-path-18)">
                    <rect x="48.169" y="6.0002" width="11.7787" height="10.3395" style="fill:#212c3d" />
                </g>
            </g>
            <g style="clip-path:url(#clip-path-21)">
                <g style="clip-path:url(#clip-path-18)">
                    <rect x="47.9677" y="12.7738" width="8.0567" height="8.2991" style="fill:#212c3d" />
                </g>
            </g>
            <g style="clip-path:url(#clip-path-23)">
                <g style="clip-path:url(#clip-path-18)">
                    <rect x="49.3069" y="6.5033" width="13.8109" height="14.2198" style="fill:#aebbce" />
                </g>
            </g>
            <g style="clip-path:url(#clip-path-18)">
                <path d="M115.0059,48.49l-.3877-.9218a2.1141,2.1141,0,0,0,.9526-.7334l.82.5722A3.1269,3.1269,0,0,1,115.0059,48.49Z" style="fill:#ededed" />
                <path d="M106.5205,49.091c-.8232,0-1.65-.0136-2.4736-.0483l.042-.999c2.374.0986,4.7739.0224,7.0605-.0513l.8-.0259.0313,1-.7994.0254C109.667,49.0407,108.1011,49.091,106.5205,49.091Zm-5.4028-.2739a24.7259,24.7259,0,0,1-4.6128-.9507,12.234,12.234,0,0,1-3.0723-1.4775l.5557-.8311a11.2565,11.2565,0,0,0,2.8179,1.3555,23.7892,23.7892,0,0,0,4.4277.9106Zm-14.43-1.8608a17.8966,17.8966,0,0,1-7.437-3.1109l.5566-.831a16.93,16.93,0,0,0,7.0113,2.9507Zm3.0391-.0445-.1719-.9853a7.98,7.98,0,0,0,1.9873-.6236,8.6908,8.6908,0,0,0,3.8359-3.6259l.875.4834a9.58,9.58,0,0,1-4.29,4.05A8.998,8.998,0,0,1,89.7266,46.9118Zm1.438-2.5366a7.3448,7.3448,0,0,1-1.8355-4.7168,7.01,7.01,0,0,1,.4741-2.4975,6.4656,6.4656,0,0,1,.3115-.6958l.8868.4619a5.5648,5.5648,0,0,0-.2637.5888,6.0217,6.0217,0,0,0-.4087,2.1426,6.3624,6.3624,0,0,0,1.6021,4.0752ZM76.8838,42.0944a64.9455,64.9455,0,0,1-5.8565-5.3862l.7188-.6953a63.98,63.98,0,0,0,5.7656,5.3032Zm20.3784-2.8212-.9873-.1563c.0293-.188.0522-.3769.0669-.5669.0093-.1172.0137-.2339.0137-.3516,0-1.6586-.9268-3.4487-2.4239-3.4487H93.93a2.4766,2.4766,0,0,0-1.1607.3247l-.4716-.8818a3.4562,3.4562,0,0,1,1.6318-.4429h.0029c2.1426,0,3.4234,2.2617,3.4234,4.4487q0,.2162-.0166.43Q97.314,38.9512,97.2622,39.2732ZM69.0376,34.5725c-.8887-.99-1.7837-2.0362-2.66-3.1084l.7745-.6328c.8667,1.0605,1.7514,2.0947,2.63,3.0732Z" style="fill:#ededed" />
                <path d="M65.4639,30.3283q-.4687-.5917-.9273-1.187l.792-.61q.4548.59.9194,1.1772Z" style="fill:#ededed" />
                <path d="M77.582,42.5984q-.5991-.4549-1.1909-.9371l.6309-.7763c.3857.3134.7739.62,1.1645.9165Z" style="fill:#485972" />
                <path d="M74.0029,39.5891c-.7441-.6831-1.5083-1.42-2.2715-2.19l.71-.7041c.7524.7588,1.5054,1.4849,2.2383,2.1577Zm-4.4438-4.4712c-.7451-.813-1.4439-1.607-2.086-2.3589l.7608-.6494c.6343.7436,1.3252,1.5283,2.0625,2.3325Z" style="fill:#485972" />
                <path d="M65.4648,30.3259c-.3437-.4321-.6547-.83-.9287-1.1865l.794-.6084c.27.353.5771.7456.917,1.1718Z" style="fill:#485972" />
            </g>
        </g>
    </g>
    <g style="clip-path:url(#clip-path-26)">
        <g style="clip-path:url(#clip-path-7)">
            <g style="opacity:0.14419999718666077">
                <rect x="137.8582" y="58.406" width="10.47" height="33.2123" style="fill:#212c3d" />
            </g>
        </g>
    </g>
    <rect y="99.0002" width="200" height="1" style="fill:#ebedf5" />
</svg>