<svg id="Layer_1" data-name="Layer 1" xmlns="http://www.w3.org/2000/svg" xmlns:xlink="http://www.w3.org/1999/xlink" viewBox="0 0 247.08 94.304">
    <defs>
        <clipPath id="clip-path">
            <path d="M19.9449,79.85,31.68,20.0414A15.1088,15.1088,0,0,1,46.5069,7.84H63.64l11.946,84.994H30.6289A10.8879,10.8879,0,0,1,19.9449,79.85" style="fill:none;clip-rule:evenodd" />
        </clipPath>
        <clipPath id="clip-path-2">
            <rect x="-601" y="-363" width="1440" height="800" style="fill:none" />
        </clipPath>
        <clipPath id="clip-path-3">
            <rect width="247.08" height="94.304" style="fill:none" />
        </clipPath>
        <clipPath id="clip-path-4">
            <rect width="248" height="96" style="fill:none" />
        </clipPath>
        <clipPath id="clip-path-5">
            <path d="M111.0212,9.84A13.8218,13.8218,0,0,1,124.4345,21.18l12.1533,61.4422A8.4323,8.4323,0,0,1,128.544,92.84H60.8493a18.71,18.71,0,0,1-18.1569-15.351L34.0408,33.7525,31.9827,23.3476C30.6031,16.3723,35.7454,9.84,42.616,9.84Z" style="fill:none;clip-rule:evenodd" />
        </clipPath>
        <clipPath id="clip-path-6">
            <rect width="248" height="95" style="fill:none" />
        </clipPath>
        <clipPath id="clip-path-8">
            <rect y="93.304" width="247.08" height="1" style="fill:none" />
        </clipPath>
        <clipPath id="clip-path-9">
            <path d="M191.6125,61.8123H190.2a3.8888,3.8888,0,0,1-3.889-3.889V33.5753a3.8888,3.8888,0,0,1,3.889-3.889h1.413a3.8888,3.8888,0,0,1,3.889,3.889v24.348a3.8888,3.8888,0,0,1-3.889,3.889" style="fill:none;clip-rule:evenodd" />
        </clipPath>
        <clipPath id="clip-path-11">
            <rect x="186.31" y="34.703" width="2.34" height="0.646" style="fill:none" />
        </clipPath>
        <clipPath id="clip-path-12">
            <rect x="186.311" y="38.734" width="3.897" height="0.646" style="fill:none" />
        </clipPath>
        <clipPath id="clip-path-13">
            <rect x="186.31" y="42.764" width="2.34" height="0.646" style="fill:none" />
        </clipPath>
        <clipPath id="clip-path-14">
            <rect x="186.311" y="46.794" width="3.897" height="0.646" style="fill:none" />
        </clipPath>
        <clipPath id="clip-path-15">
            <rect x="186.31" y="50.825" width="2.34" height="0.646" style="fill:none" />
        </clipPath>
        <clipPath id="clip-path-16">
            <rect x="186.311" y="54.855" width="3.897" height="0.646" style="fill:none" />
        </clipPath>
        <clipPath id="clip-path-17">
            <path d="M211.0441,99.5405h-22.995a7.8818,7.8818,0,0,1-7.844-8.643l2.946-30.322a2.7967,2.7967,0,0,1,2.784-2.527h27.223a2.7984,2.7984,0,0,1,2.785,2.527l2.945,30.322a7.8807,7.8807,0,0,1-7.844,8.643" style="fill:none;clip-rule:evenodd" />
        </clipPath>
        <clipPath id="clip-path-19">
            <rect x="202.994" y="47.478" width="5.179" height="13.59" style="fill:none" />
        </clipPath>
        <clipPath id="clip-path-20">
            <polygon points="208.172 47.48 202.992 47.48 204.455 43.474 206.709 43.474 208.172 47.48" style="fill:none;clip-rule:evenodd" />
        </clipPath>
        <clipPath id="clip-path-22">
            <path d="M206.0634,42.6363h-.961c-.13,0-.215-.177-.159-.33l.481-1.317a.1625.1625,0,0,1,.319.001l.479,1.317c.056.153-.029.329-.159.329" style="fill:none;clip-rule:evenodd" />
        </clipPath>
        <clipPath id="clip-path-24">
            <path d="M198.6943,61.0683h0a3.3075,3.3075,0,0,1-3.307-3.307V43.9353a3.307,3.307,0,0,1,6.614,0v13.826a3.3075,3.3075,0,0,1-3.307,3.307" style="fill:none;clip-rule:evenodd" />
        </clipPath>
        <clipPath id="clip-path-26">
            <path d="M193.7676,55.6189a.4025.4025,0,0,1-.403-.403v-6.839a2.1136,2.1136,0,0,1,2.112-2.111h1.53a.403.403,0,1,1,0,.806h-1.53a1.3074,1.3074,0,0,0-1.306,1.305v6.839a.4025.4025,0,0,1-.403.403" style="fill:none;clip-rule:evenodd" />
        </clipPath>
        <clipPath id="clip-path-28">
            <rect x="183.309" y="56.433" width="31.273" height="1.612" style="fill:none" />
        </clipPath>
        <clipPath id="clip-path-29">
            <rect x="195.388" y="46.266" width="6.613" height="0.806" style="fill:none" />
        </clipPath>
        <clipPath id="clip-path-30">
            <rect x="202.992" y="47.075" width="6.614" height="0.806" style="fill:none" />
        </clipPath>
        <clipPath id="clip-path-31">
            <path d="M182.427,68.0274l.724-7.452a2.7967,2.7967,0,0,1,2.784-2.527h27.223a2.7977,2.7977,0,0,1,2.785,2.527l.724,7.452Z" style="fill:none;clip-rule:evenodd" />
        </clipPath>
        <clipPath id="clip-path-33">
            <line x1="180.4468" y1="50.2385" x2="210.5808" y2="50.2385" style="fill:none" />
        </clipPath>
        <clipPath id="clip-path-35">
            <path d="M45.8554,7.84h72.591a14.5306,14.5306,0,0,1,14.234,11.612l12.897,62.919a8.7144,8.7144,0,0,1-8.536,10.464H65.2044a19.6691,19.6691,0,0,1-19.268-15.72l-9.181-44.788-2.184-10.655A11.519,11.519,0,0,1,45.8554,7.84" style="fill:none;clip-rule:evenodd" />
        </clipPath>
        <clipPath id="clip-path-37">
            <path d="M62.2992,14.0051a1.7822,1.7822,0,0,0,.295.998,1.4352,1.4352,0,0,0,1.193.677,1.5931,1.5931,0,0,0,1.494-1.675.9057.9057,0,0,0-.014-.194,1.5819,1.5819,0,0,0-1.313-1.468c-.054,0-.114-.006-.167-.006a1.4564,1.4564,0,0,0-1.247.757,1.7943,1.7943,0,0,0-.241.911" style="fill:none;clip-rule:evenodd" />
        </clipPath>
        <clipPath id="clip-path-39">
            <path d="M62.2992,0c3.022,0,5.475,3.364,5.475,7.505,0,.107,0,.214-.007.315a8.3349,8.3349,0,0,1-2.5,5.99,4.5266,4.5266,0,0,1-2.673,1.193,1.7822,1.7822,0,0,1-.295-.998,1.8007,1.8007,0,0,1,.241-.912,1.4585,1.4585,0,0,1,1.247-.757c.053,0,.113.007.167.007a5.9693,5.9693,0,0,0,1.441-4.155c0-.127,0-.247-.007-.368-.121-2.546-1.461-4.557-3.089-4.557s-2.968,2.011-3.089,4.557h-2.379c-.007-.107-.007-.208-.007-.315,0-4.141,2.453-7.505,5.475-7.505" style="fill:none;clip-rule:evenodd" />
        </clipPath>
        <clipPath id="clip-path-41">
            <path d="M62.5375,13.0937a2.3433,2.3433,0,0,0,1.414-.75c-.054,0-.114-.007-.168-.007a1.456,1.456,0,0,0-1.246.757" style="fill:none;clip-rule:evenodd" />
        </clipPath>
        <clipPath id="clip-path-43">
            <path d="M105.9241,14.0051a1.7822,1.7822,0,0,0,.295.998,1.4352,1.4352,0,0,0,1.193.677,1.5931,1.5931,0,0,0,1.494-1.675.9057.9057,0,0,0-.014-.194,1.5819,1.5819,0,0,0-1.313-1.468c-.053,0-.114-.006-.167-.006a1.4564,1.4564,0,0,0-1.247.757,1.7943,1.7943,0,0,0-.241.911" style="fill:none;clip-rule:evenodd" />
        </clipPath>
        <clipPath id="clip-path-45">
            <path d="M105.9241,0c3.022,0,5.475,3.364,5.475,7.505,0,.107,0,.214-.007.315a8.3349,8.3349,0,0,1-2.5,5.99,4.5266,4.5266,0,0,1-2.673,1.193,1.7822,1.7822,0,0,1-.295-.998,1.8007,1.8007,0,0,1,.241-.912,1.4585,1.4585,0,0,1,1.247-.757c.053,0,.114.007.167.007a5.9693,5.9693,0,0,0,1.441-4.155c0-.127,0-.247-.007-.368-.121-2.546-1.461-4.557-3.089-4.557s-2.968,2.011-3.089,4.557h-2.379c-.007-.107-.007-.208-.007-.315,0-4.141,2.453-7.505,5.475-7.505" style="fill:none;clip-rule:evenodd" />
        </clipPath>
        <clipPath id="clip-path-47">
            <path d="M106.1625,13.0937a2.3433,2.3433,0,0,0,1.414-.75c-.054,0-.114-.007-.168-.007a1.456,1.456,0,0,0-1.246.757" style="fill:none;clip-rule:evenodd" />
        </clipPath>
        <clipPath id="clip-path-49">
            <line x1="135.2639" y1="32.0565" x2="36.7549" y2="32.0565" style="fill:none" />
        </clipPath>
        <clipPath id="clip-path-51">
            <polygon points="37.097 34.056 135.663 34.056 134.888 30.056 36.31 30.056 37.097 34.056" style="fill:none;clip-rule:evenodd" />
        </clipPath>
        <clipPath id="clip-path-53">
            <rect x="56" y="44" width="16" height="12" style="fill:none" />
        </clipPath>
        <clipPath id="clip-path-54">
            <rect x="55" y="43" width="18" height="14" style="fill:none" />
        </clipPath>
        <clipPath id="clip-path-55">
            <path d="M57.6546,44H68.0784a2.0779,2.0779,0,0,1,2.0437,1.6394l1.852,8.8836A1.236,1.236,0,0,1,70.7485,56H60.4332a2.8126,2.8126,0,0,1-2.7669-2.2191l-1.3185-6.3236-.3136-1.5044A1.6341,1.6341,0,0,1,57.6546,44" style="fill:none;clip-rule:evenodd" />
        </clipPath>
        <clipPath id="clip-path-57">
            <line x1="61" y1="53" x2="67" y2="47" style="fill:none" />
        </clipPath>
        <clipPath id="clip-path-59">
            <path d="M61.3832,54a.3612.3612,0,0,1-.2655-.12.4716.4716,0,0,1-.0108-.6107l5.2339-6.136a.3532.3532,0,0,1,.5419-.0121.4714.4714,0,0,1,.01.61L61.66,53.8674A.3629.3629,0,0,1,61.3832,54" style="fill:none;clip-rule:evenodd" />
        </clipPath>
        <clipPath id="clip-path-61">
            <path d="M68.57,54a.4257.4257,0,0,1-.2574-.0864l-8.14-6.1364a.433.433,0,0,1-.086-.6047.4279.4279,0,0,1,.6012-.0859l8.1406,6.136a.4328.4328,0,0,1,.086.6046A.4281.4281,0,0,1,68.57,54" style="fill:none;clip-rule:evenodd" />
        </clipPath>
        <clipPath id="clip-path-63">
            <rect x="83" y="44" width="16" height="12" style="fill:none" />
        </clipPath>
        <clipPath id="clip-path-64">
            <rect x="82" y="43" width="18" height="14" style="fill:none" />
        </clipPath>
        <clipPath id="clip-path-65">
            <path d="M84.6546,44H95.0784a2.0779,2.0779,0,0,1,2.0437,1.6394l1.852,8.8836A1.236,1.236,0,0,1,97.7485,56H87.4332a2.8126,2.8126,0,0,1-2.7669-2.2191l-1.3185-6.3236-.3136-1.5044A1.6341,1.6341,0,0,1,84.6546,44" style="fill:none;clip-rule:evenodd" />
        </clipPath>
        <clipPath id="clip-path-67">
            <rect x="111" y="44" width="16" height="12" style="fill:none" />
        </clipPath>
        <clipPath id="clip-path-68">
            <rect x="110" y="43" width="18" height="14" style="fill:none" />
        </clipPath>
        <clipPath id="clip-path-69">
            <path d="M112.6546,44h10.4238a2.078,2.078,0,0,1,2.0437,1.6394l1.852,8.8836A1.236,1.236,0,0,1,125.7485,56H115.4332a2.8126,2.8126,0,0,1-2.7669-2.2191l-1.3185-6.3236-.3136-1.5044A1.6341,1.6341,0,0,1,112.6546,44" style="fill:none;clip-rule:evenodd" />
        </clipPath>
        <clipPath id="clip-path-71">
            <rect x="61" y="67" width="16" height="12" style="fill:none" />
        </clipPath>
        <clipPath id="clip-path-72">
            <rect x="60" y="66" width="18" height="14" style="fill:none" />
        </clipPath>
        <clipPath id="clip-path-73">
            <path d="M62.6546,67H73.0784a2.0779,2.0779,0,0,1,2.0437,1.6394l1.852,8.8836A1.236,1.236,0,0,1,75.7485,79H65.4332a2.8126,2.8126,0,0,1-2.7669-2.219l-1.3185-6.3237-.3136-1.5044A1.6341,1.6341,0,0,1,62.6546,67" style="fill:none;clip-rule:evenodd" />
        </clipPath>
        <clipPath id="clip-path-75">
            <rect x="89" y="67" width="16" height="12" style="fill:none" />
        </clipPath>
        <clipPath id="clip-path-76">
            <rect x="88" y="66" width="18" height="14" style="fill:none" />
        </clipPath>
        <clipPath id="clip-path-77">
            <path d="M90.6546,67h10.4238a2.078,2.078,0,0,1,2.0437,1.6394l1.852,8.8836A1.236,1.236,0,0,1,103.7485,79H93.4332a2.8126,2.8126,0,0,1-2.7669-2.219l-1.3185-6.3237-.3136-1.5044A1.6341,1.6341,0,0,1,90.6546,67" style="fill:none;clip-rule:evenodd" />
        </clipPath>
    </defs>
    <g style="clip-path:url(#clip-path)">
        <g style="clip-path:url(#clip-path-2)">
            <rect x="17.6249" y="6.8404" width="58.961" height="86.994" style="fill:#212c3d" />
        </g>
    </g>
    <g style="clip-path:url(#clip-path-3)">
        <g style="clip-path:url(#clip-path-4)">
            <g style="clip-path:url(#clip-path-5)">
                <g style="clip-path:url(#clip-path-6)">
                    <rect x="29.6031" y="8.8403" width="109.0279" height="85" style="fill:#aebbce" />
                </g>
            </g>
            <g style="clip-path:url(#clip-path-6)">
                <path d="M40.2543,40v-.8949l3.3608-3.679q.5915-.6462.9744-1.126a4.1635,4.1635,0,0,0,.5692-.9049,2.1975,2.1975,0,0,0,.1865-.8924,1.6639,1.6639,0,0,0-.2561-.93,1.6954,1.6954,0,0,0-.6985-.6066,2.2579,2.2579,0,0,0-.9943-.2138,2.0738,2.0738,0,0,0-1.0217.2412,1.673,1.673,0,0,0-.6711.6736,2.0836,2.0836,0,0,0-.2362,1.0142H40.294a2.9543,2.9543,0,0,1,.4127-1.571,2.8624,2.8624,0,0,1,1.126-1.054,3.3734,3.3734,0,0,1,1.6034-.3778,3.2531,3.2531,0,0,1,1.5859.3778,2.8411,2.8411,0,0,1,1.0838,1.0192,2.6788,2.6788,0,0,1,.3928,1.4268,3.0841,3.0841,0,0,1-.2014,1.0963,4.8989,4.8989,0,0,1-.696,1.1882q-.4947.6538-1.37,1.5934l-2.2869,2.446v.0795h4.733V40ZM52.3052,29.8182V40h-1.233V31.1108h-.06l-2.4858,1.6506V31.5085l2.5455-1.69ZM55.2231,40v-.8949l3.3608-3.679q.5915-.6462.9744-1.126a4.1635,4.1635,0,0,0,.5692-.9049,2.1975,2.1975,0,0,0,.1865-.8924,1.6639,1.6639,0,0,0-.2561-.93,1.6954,1.6954,0,0,0-.6985-.6066,2.2579,2.2579,0,0,0-.9943-.2138,2.0738,2.0738,0,0,0-1.0217.2412,1.673,1.673,0,0,0-.6711.6736,2.0836,2.0836,0,0,0-.2362,1.0142H55.2628a2.9543,2.9543,0,0,1,.4127-1.571,2.8624,2.8624,0,0,1,1.126-1.054,3.3734,3.3734,0,0,1,1.6034-.3778,3.2531,3.2531,0,0,1,1.5859.3778,2.8411,2.8411,0,0,1,1.0838,1.0192,2.6788,2.6788,0,0,1,.3928,1.4268,3.0841,3.0841,0,0,1-.2014,1.0963,4.8989,4.8989,0,0,1-.696,1.1882q-.4947.6538-1.37,1.5934l-2.2869,2.446v.0795h4.733V40Zm16.8435-7h-1.233a2.59,2.59,0,0,0-.38-.9347,2.6414,2.6414,0,0,0-.6563-.6786,2.8526,2.8526,0,0,0-.8526-.4151,3.3956,3.3956,0,0,0-.9744-.1392,3.0941,3.0941,0,0,0-1.673.4673,3.2278,3.2278,0,0,0-1.1882,1.3771,5.8824,5.8824,0,0,0,0,4.4645,3.2269,3.2269,0,0,0,1.1882,1.3772,3.0941,3.0941,0,0,0,1.673.4673,3.3956,3.3956,0,0,0,.9744-.1392,2.8526,2.8526,0,0,0,.8526-.4151,2.5881,2.5881,0,0,0,1.0366-1.6133h1.233a4.11,4.11,0,0,1-.5071,1.397,3.7861,3.7861,0,0,1-.9148,1.0465,3.9844,3.9844,0,0,1-1.2255.6538,4.6015,4.6015,0,0,1-1.4492.2237,4.2665,4.2665,0,0,1-2.3168-.6364,4.3661,4.3661,0,0,1-1.5959-1.81,6.9545,6.9545,0,0,1,0-5.5682,4.367,4.367,0,0,1,1.5959-1.81A4.2673,4.2673,0,0,1,67.97,29.679a4.6015,4.6015,0,0,1,1.4492.2237,3.9823,3.9823,0,0,1,1.2255.6538,3.8015,3.8015,0,0,1,.9148,1.044A4.0871,4.0871,0,0,1,72.0666,33Zm5.2476,7.1392a4.31,4.31,0,0,1-1.7525-.3381,2.9746,2.9746,0,0,1-1.218-.9421,2.5028,2.5028,0,0,1-.49-1.4045h1.2528a1.4674,1.4674,0,0,0,.3381.8477,1.9423,1.9423,0,0,0,.78.5494,2.8424,2.8424,0,0,0,1.0689.1939,2.8041,2.8041,0,0,0,1.1634-.2287,1.909,1.909,0,0,0,.7954-.6364,1.5942,1.5942,0,0,0,.2884-.9446,1.7844,1.7844,0,0,0-.2784-.9918,1.85,1.85,0,0,0-.8154-.6737,3.1688,3.1688,0,0,0-1.3125-.2436H76.32V34.233h.8153a2.4553,2.4553,0,0,0,1.0664-.2188,1.7278,1.7278,0,0,0,.7209-.6165,1.6645,1.6645,0,0,0,.261-.9346,1.7215,1.7215,0,0,0-.2287-.9,1.5681,1.5681,0,0,0-.6438-.5966,2.1087,2.1087,0,0,0-.9769-.2138,2.5807,2.5807,0,0,0-.9918.1914,1.8794,1.8794,0,0,0-.7582.5519,1.4481,1.4481,0,0,0-.3182.8675H74.0727a2.4356,2.4356,0,0,1,.4823-1.4044,3.0414,3.0414,0,0,1,1.1857-.9422,3.8079,3.8079,0,0,1,1.6133-.338,3.2567,3.2567,0,0,1,1.6207.38,2.7132,2.7132,0,0,1,1.0391,1.0018,2.6168,2.6168,0,0,1,.3629,1.3423,2.3925,2.3925,0,0,1-.45,1.4666,2.3052,2.3052,0,0,1-1.2205.84v.08a2.37,2.37,0,0,1,1.5064.8178,2.4787,2.4787,0,0,1,.5419,1.6282,2.5779,2.5779,0,0,1-.45,1.489,3.0842,3.0842,0,0,1-1.2255,1.0366A3.98,3.98,0,0,1,77.3142,40.1392ZM86.1,40h-3.142V29.8182H86.24a4.9865,4.9865,0,0,1,2.5355.609,4.0218,4.0218,0,0,1,1.6158,1.745,6.8711,6.8711,0,0,1-.005,5.4539,4.02,4.02,0,0,1-1.6505,1.76A5.2691,5.2691,0,0,1,86.1,40Zm-1.9091-1.0938h1.83a4.083,4.083,0,0,0,2.093-.4872,3.0025,3.0025,0,0,0,1.2379-1.387,5.8226,5.8226,0,0,0,.005-4.2682,2.9871,2.9871,0,0,0-1.2031-1.3721,3.82,3.82,0,0,0-1.9936-.48H84.1912Z" style="fill:#6c859d" />
            </g>
            <g style="clip-path:url(#clip-path-8)">
                <rect x="-1" y="92.304" width="249.08" height="3" style="fill:#ebedf6" />
            </g>
            <g style="clip-path:url(#clip-path-9)">
                <g style="clip-path:url(#clip-path-6)">
                    <rect x="185.3105" y="28.6863" width="11.191" height="34.126" style="fill:#f3f6fc" />
                </g>
            </g>
            <g style="clip-path:url(#clip-path-11)">
                <rect x="185.31" y="33.703" width="4.34" height="2.646" style="fill:#d6dfea" />
            </g>
            <g style="clip-path:url(#clip-path-12)">
                <rect x="185.311" y="37.734" width="5.897" height="2.646" style="fill:#d6dfea" />
            </g>
            <g style="clip-path:url(#clip-path-13)">
                <rect x="185.31" y="41.764" width="4.34" height="2.646" style="fill:#d6dfea" />
            </g>
            <g style="clip-path:url(#clip-path-14)">
                <rect x="185.311" y="45.794" width="5.897" height="2.646" style="fill:#d6dfea" />
            </g>
            <g style="clip-path:url(#clip-path-15)">
                <rect x="185.31" y="49.825" width="4.34" height="2.646" style="fill:#d6dfea" />
            </g>
            <g style="clip-path:url(#clip-path-16)">
                <rect x="185.311" y="53.855" width="5.897" height="2.646" style="fill:#d6dfea" />
            </g>
            <g style="clip-path:url(#clip-path-17)">
                <g style="clip-path:url(#clip-path-6)">
                    <rect x="178.7561" y="57.0485" width="41.582" height="38.9515" style="fill:#f3f6fc" />
                </g>
            </g>
            <g style="clip-path:url(#clip-path-19)">
                <rect x="201.994" y="46.478" width="7.179" height="15.59" style="fill:#aebbce" />
            </g>
            <g style="clip-path:url(#clip-path-20)">
                <g style="clip-path:url(#clip-path-6)">
                    <rect x="201.9923" y="42.4736" width="7.18" height="6.006" style="fill:#aebbce" />
                </g>
            </g>
            <g style="clip-path:url(#clip-path-22)">
                <g style="clip-path:url(#clip-path-6)">
                    <rect x="203.8874" y="39.8143" width="3.391" height="3.822" style="fill:#212c3d" />
                </g>
            </g>
            <g style="clip-path:url(#clip-path-24)">
                <g style="clip-path:url(#clip-path-6)">
                    <rect x="194.3873" y="39.6283" width="8.614" height="22.44" style="fill:#aebbce" />
                </g>
            </g>
            <g style="clip-path:url(#clip-path-26)">
                <g style="clip-path:url(#clip-path-6)">
                    <rect x="192.3646" y="45.2659" width="6.046" height="11.353" style="fill:#aebbce" />
                </g>
            </g>
            <g style="clip-path:url(#clip-path-28)">
                <rect x="182.309" y="55.433" width="33.273" height="3.612" style="fill:#fff" />
            </g>
            <g style="clip-path:url(#clip-path-29)">
                <rect x="194.388" y="45.266" width="8.613" height="2.806" style="fill:#fff" />
            </g>
            <g style="clip-path:url(#clip-path-30)">
                <rect x="201.992" y="46.075" width="8.614" height="2.806" style="fill:#fff" />
            </g>
            <g style="clip-path:url(#clip-path-31)">
                <g style="clip-path:url(#clip-path-6)">
                    <rect x="181.427" y="57.0484" width="36.24" height="11.979" style="fill:#dfe5f0" />
                </g>
            </g>
            <g style="clip-path:url(#clip-path-33)">
                <g style="clip-path:url(#clip-path-6)">
                    <rect x="179.4468" y="49.2385" width="32.134" height="2" style="fill:#fff" />
                </g>
            </g>
            <g style="clip-path:url(#clip-path-35)">
                <g style="clip-path:url(#clip-path-6)">
                    <rect x="32.1074" y="6.8403" width="115.577" height="86.995" style="fill:#f3f6fc" />
                </g>
            </g>
            <g style="clip-path:url(#clip-path-37)">
                <g style="clip-path:url(#clip-path-6)">
                    <rect x="61.2992" y="11.3371" width="4.982" height="5.343" style="fill:#212c3d" />
                </g>
            </g>
            <g style="clip-path:url(#clip-path-39)">
                <g style="clip-path:url(#clip-path-6)">
                    <rect x="55.8242" y="-0.9996" width="12.95" height="17.003" style="fill:#aebbce" />
                </g>
            </g>
            <g style="clip-path:url(#clip-path-41)">
                <g style="clip-path:url(#clip-path-6)">
                    <rect x="61.5375" y="11.3367" width="3.414" height="2.757" style="fill:#212c3d" />
                </g>
            </g>
            <g style="clip-path:url(#clip-path-43)">
                <g style="clip-path:url(#clip-path-6)">
                    <rect x="104.9241" y="11.3371" width="4.982" height="5.343" style="fill:#212c3d" />
                </g>
            </g>
            <g style="clip-path:url(#clip-path-45)">
                <g style="clip-path:url(#clip-path-6)">
                    <rect x="99.4491" y="-0.9996" width="12.95" height="17.003" style="fill:#aebbce" />
                </g>
            </g>
            <g style="clip-path:url(#clip-path-47)">
                <g style="clip-path:url(#clip-path-6)">
                    <rect x="105.1625" y="11.3367" width="3.414" height="2.757" style="fill:#212c3d" />
                </g>
            </g>
            <g style="clip-path:url(#clip-path-49)">
                <g style="clip-path:url(#clip-path-6)">
                    <rect x="35.7549" y="31.0565" width="100.509" height="2" style="fill:#f3f6fc" />
                </g>
            </g>
            <g style="clip-path:url(#clip-path-51)">
                <g style="clip-path:url(#clip-path-6)">
                    <rect x="35.3104" y="29.056" width="101.3529" height="6" style="fill:#fff" />
                </g>
            </g>
        </g>
    </g>
    <g style="clip-path:url(#clip-path-53)">
        <g style="clip-path:url(#clip-path-54)">
            <g style="clip-path:url(#clip-path-55)">
                <g style="clip-path:url(#clip-path-53)">
                    <rect x="55" y="43" width="18" height="14" style="fill:#aebbce" />
                </g>
            </g>
        </g>
    </g>
    <g style="clip-path:url(#clip-path-57)">
        <g style="clip-path:url(#clip-path-2)">
            <rect x="60" y="46" width="8" height="8" style="fill:#010101" />
        </g>
    </g>
    <g style="clip-path:url(#clip-path-59)">
        <g style="clip-path:url(#clip-path-2)">
            <rect x="59.9602" y="45.9548" width="8.0796" height="9.0452" style="fill:#fff" />
        </g>
    </g>
    <g style="clip-path:url(#clip-path-61)">
        <g style="clip-path:url(#clip-path-2)">
            <rect x="58.9434" y="45.9432" width="11.1131" height="9.0568" style="fill:#fff" />
        </g>
    </g>
    <g style="clip-path:url(#clip-path-63)">
        <g style="clip-path:url(#clip-path-64)">
            <g style="clip-path:url(#clip-path-65)">
                <g style="clip-path:url(#clip-path-63)">
                    <rect x="82" y="43" width="18" height="14" style="fill:#fff" />
                </g>
            </g>
        </g>
    </g>
    <g style="clip-path:url(#clip-path-67)">
        <g style="clip-path:url(#clip-path-68)">
            <g style="clip-path:url(#clip-path-69)">
                <g style="clip-path:url(#clip-path-67)">
                    <rect x="110" y="43" width="18" height="14" style="fill:#fff" />
                </g>
            </g>
        </g>
    </g>
    <g style="clip-path:url(#clip-path-71)">
        <g style="clip-path:url(#clip-path-72)">
            <g style="clip-path:url(#clip-path-73)">
                <g style="clip-path:url(#clip-path-71)">
                    <rect x="60" y="66" width="18" height="14" style="fill:#fff" />
                </g>
            </g>
        </g>
    </g>
    <g style="clip-path:url(#clip-path-75)">
        <g style="clip-path:url(#clip-path-76)">
            <g style="clip-path:url(#clip-path-77)">
                <g style="clip-path:url(#clip-path-75)">
                    <rect x="88" y="66" width="18" height="14" style="fill:#fff" />
                </g>
            </g>
        </g>
    </g>
</svg>