<?xml version="1.0" encoding="UTF-8"?><svg id="a" xmlns="http://www.w3.org/2000/svg" xmlns:xlink="http://www.w3.org/1999/xlink" viewBox="0 0 247.08 94.304"><defs><style>.dc{mask:url(#h);}.dd{mask:url(#b`);}.de{mask:url(#af);}.df{mask:url(#aj);}.dg{mask:url(#an);}.dh{mask:url(#ar);}.di{mask:url(#ab);}.dj{mask:url(#av);}.dk{mask:url(#bh);}.dl{mask:url(#bd);}.dm{mask:url(#bw);}.dn{mask:url(#bs);}.do{mask:url(#bl);}.dp{mask:url(#ce);}.dq{mask:url(#ci);}.dr{mask:url(#cm);}.ds{mask:url(#cq);}.dt{mask:url(#ca);}.du{mask:url(#cy);}.dv{mask:url(#cu);}.dw{fill:none;}.dx,.dy{fill:#fff;}.e`{fill:#f3f6fc;}.e`,.ea,.eb,.ec,.ed,.ee,.dy{fill-rule:evenodd;}.ea{fill:#212c3d;}.eb{fill:#e0e5f0;}.ec{fill:#d6dfea;}.ed{fill:#aebbce;}.ee{fill:#ebedf5;}</style><mask id="h" y=".4635" width="247.08" height="94.304" maskUnits="userSpaceOnUse"><g id="i"><polygon id="j" points="0 94.7675 247.08 94.7675 247.08 .4635 0 .4635 0 94.7675" style="fill:#fff; fill-rule:evenodd;"/></g></mask><mask id="ab" y=".4635" width="247.08" height="94.304" maskUnits="userSpaceOnUse"><g id="ac"><polygon id="ad" points="0 94.7675 247.08 94.7675 247.08 .4635 0 .4635 0 94.7675" style="fill:#fff; fill-rule:evenodd;"/></g></mask><mask id="af" y=".4635" width="247.08" height="94.304" maskUnits="userSpaceOnUse"><g id="ag"><polygon id="ah" points="0 94.7675 247.08 94.7675 247.08 .4635 0 .4635 0 94.7675" style="fill:#fff; fill-rule:evenodd;"/></g></mask><mask id="aj" y=".4635" width="247.08" height="94.304" maskUnits="userSpaceOnUse"><g id="ak"><polygon id="al" points="0 94.7675 247.08 94.7675 247.08 .4635 0 .4635 0 94.7675" style="fill:#fff; fill-rule:evenodd;"/></g></mask><mask id="an" y=".4635" width="247.08" height="94.304" maskUnits="userSpaceOnUse"><g id="ao"><polygon id="ap" points="0 94.7675 247.08 94.7675 247.08 .4635 0 .4635 0 94.7675" style="fill:#fff; fill-rule:evenodd;"/></g></mask><mask id="ar" y=".4635" width="247.08" height="94.304" maskUnits="userSpaceOnUse"><g id="as"><polygon id="at" points="0 94.7675 247.08 94.7675 247.08 .4635 0 .4635 0 94.7675" style="fill:#fff; fill-rule:evenodd;"/></g></mask><mask id="av" y=".4635" width="247.08" height="94.304" maskUnits="userSpaceOnUse"><g id="aw"><polygon id="ax" points="0 94.7675 247.08 94.7675 247.08 .4635 0 .4635 0 94.7675" style="fill:#fff; fill-rule:evenodd;"/></g></mask><mask id="b`" y=".4635" width="247.08" height="94.304" maskUnits="userSpaceOnUse"><g id="ba"><polygon id="bb" points="0 94.7675 247.08 94.7675 247.08 .4635 0 .4635 0 94.7675" style="fill:#fff; fill-rule:evenodd;"/></g></mask><mask id="bd" y=".4635" width="247.08" height="94.304" maskUnits="userSpaceOnUse"><g id="be"><polygon id="bf" points="0 94.7675 247.08 94.7675 247.08 .4635 0 .4635 0 94.7675" style="fill:#fff; fill-rule:evenodd;"/></g></mask><mask id="bh" x="55.9999" y="44.4633" width="16.0001" height="12.0002" maskUnits="userSpaceOnUse"><g id="bi"><polygon id="bj" points="56 44.4635 72 44.4635 72 56.4635 56 56.4635 56 44.4635" style="fill:#fff; fill-rule:evenodd;"/></g></mask><mask id="bl" x="56" y="44.4633" width="42" height="12.0002" maskUnits="userSpaceOnUse"><g id="bm"><polygon id="bn" points="56 44.4635 72 44.4635 72 56.4635 56 56.4635 56 44.4635" style="fill:#fff; fill-rule:evenodd;"/></g></mask><mask id="bs" x="82.9999" y="44.4633" width="16.0001" height="12.0002" maskUnits="userSpaceOnUse"><g id="bt"><polygon id="bu" points="83 44.4635 99 44.4635 99 56.4635 83 56.4635 83 44.4635" style="fill:#fff; fill-rule:evenodd;"/></g></mask><mask id="bw" x="83" y="44.4633" width="42" height="12.0002" maskUnits="userSpaceOnUse"><g id="bx"><polygon id="by" points="83 44.4635 99 44.4635 99 56.4635 83 56.4635 83 44.4635" style="fill:#fff; fill-rule:evenodd;"/></g></mask><mask id="ca" x="110.9999" y="44.4633" width="16.0001" height="12.0002" maskUnits="userSpaceOnUse"><g id="cb"><polygon id="cc" points="111 44.4635 127 44.4635 127 56.4635 111 56.4635 111 44.4635" style="fill:#fff; fill-rule:evenodd;"/></g></mask><mask id="ce" x="111" y="44.4633" width="42" height="12.0002" maskUnits="userSpaceOnUse"><g id="cf"><polygon id="cg" points="111 44.4635 127 44.4635 127 56.4635 111 56.4635 111 44.4635" style="fill:#fff; fill-rule:evenodd;"/></g></mask><mask id="ci" x="60.9999" y="67.4633" width="16.0001" height="12.0002" maskUnits="userSpaceOnUse"><g id="cj"><polygon id="ck" points="61 67.4635 77 67.4635 77 79.4635 61 79.4635 61 67.4635" style="fill:#fff; fill-rule:evenodd;"/></g></mask><mask id="cm" x="61" y="67.4633" width="42" height="12.0002" maskUnits="userSpaceOnUse"><g id="cn"><polygon id="co" points="61 67.4635 77 67.4635 77 79.4635 61 79.4635 61 67.4635" style="fill:#fff; fill-rule:evenodd;"/></g></mask><mask id="cq" x="88.9999" y="67.4633" width="16.0001" height="12.0002" maskUnits="userSpaceOnUse"><g id="cr"><polygon id="cs" points="89 67.4635 105 67.4635 105 79.4635 89 79.4635 89 67.4635" style="fill:#fff; fill-rule:evenodd;"/></g></mask><mask id="cu" x="89" y="67.4633" width="42" height="12.0002" maskUnits="userSpaceOnUse"><g id="cv"><polygon id="cw" points="89 67.4635 105 67.4635 105 79.4635 89 79.4635 89 67.4635" style="fill:#fff; fill-rule:evenodd;"/></g></mask><mask id="cy" y="-.0002" width="247.08" height="94.304" maskUnits="userSpaceOnUse"><g id="d`"><polygon id="da" points="0 94.3038 247.08 94.3038 247.08 -.0002 0 -.0002 0 94.3038" style="fill:#fff; fill-rule:evenodd;"/></g></mask></defs><g id="b"><polygon points="89 67.4635 105 67.4635 105 79.4635 89 79.4635 89 67.4635" style="fill:#fff; fill-rule:evenodd;"/></g><g id="c"><polygon points="61 67.4635 77 67.4635 77 79.4635 61 79.4635 61 67.4635" style="fill:#fff; fill-rule:evenodd;"/></g><g id="d"><polygon points="111 44.4635 127 44.4635 127 56.4635 111 56.4635 111 44.4635" style="fill:#fff; fill-rule:evenodd;"/></g><g id="e"><polygon points="83 44.4635 99 44.4635 99 56.4635 83 56.4635 83 44.4635" style="fill:#fff; fill-rule:evenodd;"/></g><g id="f"><polygon points="56 44.4635 72 44.4635 72 56.4635 56 56.4635 56 44.4635" style="fill:#fff; fill-rule:evenodd;"/></g><g id="g"><path d="M19.9449,80.3139L31.6799,20.5049c.7447-3.7977,3.804-4.7668,6.731-6.9477,.8335-.6211,2.3913-2.318,3.3407-2.7577,1.9399-.8985,2.5037-2.4956,4.7553-2.4956h17.133l11.946,84.994H30.6289c-6.854,0-12.004-6.258-10.684-12.984h0Z" style="fill:#212c3d; fill-rule:evenodd;"/></g><g style="mask:url(#h);"><g id="k"><path d="M111.0212,10.3038c6.5021,0,12.1071,4.7391,13.4132,11.3394l12.1533,61.4422c1.0432,5.2772-2.8468,10.2184-8.0438,10.2184H60.8493c-8.8014,0-16.3891-6.4148-18.157-15.351l-8.6516-43.7367-2.0581-10.4049c-1.3796-6.9753,3.7628-13.5073,10.6333-13.5073H111.0212Z" style="fill:#aebbce; fill-rule:evenodd;"/></g></g><g id="l"><path d="M191.6125,61.8121h-1.413c-2.148,0-3.889-1.741-3.889-3.889v-24.348c0-2.148,1.741-3.889,3.889-3.889h1.413c2.148,0,3.889,1.741,3.889,3.889v24.348c0,2.148-1.741,3.889-3.889,3.889h0Z" style="fill:#f3f6fc; fill-rule:evenodd;"/></g><g id="m"><polygon points="186.31 35.3488 188.65 35.3488 188.65 34.7028 186.31 34.7028 186.31 35.3488" style="fill:#d6dfea; fill-rule:evenodd;"/></g><g id="n"><polygon points="186.311 39.3798 190.208 39.3798 190.208 38.7338 186.311 38.7338 186.311 39.3798" style="fill:#d6dfea; fill-rule:evenodd;"/></g><g id="o"><polygon points="186.31 43.4098 188.65 43.4098 188.65 42.7638 186.31 42.7638 186.31 43.4098" style="fill:#d6dfea; fill-rule:evenodd;"/></g><g id="p"><polygon points="186.311 47.4398 190.208 47.4398 190.208 46.7938 186.311 46.7938 186.311 47.4398" style="fill:#d6dfea; fill-rule:evenodd;"/></g><g id="q"><polygon points="186.31 51.4708 188.65 51.4708 188.65 50.8248 186.31 50.8248 186.31 51.4708" style="fill:#d6dfea; fill-rule:evenodd;"/></g><g id="r"><polygon points="186.311 55.5008 190.208 55.5008 190.208 54.8548 186.311 54.8548 186.311 55.5008" style="fill:#d6dfea; fill-rule:evenodd;"/></g><path d="M218.4746,94.3009h-37.86c-.37-1.05-.53-2.21-.41-3.4l2.95-30.33c.14-1.43,1.34-2.52,2.78-2.52h27.22c1.44,0,2.65,1.09,2.79,2.52l2.94,30.33c.12,1.19-.04,2.35-.41,3.4Z" style="fill:#f3f6fc; fill-rule:evenodd;"/><g id="s"><polygon points="202.994 61.0678 208.173 61.0678 208.173 47.4778 202.994 47.4778 202.994 61.0678" style="fill:#aebbce; fill-rule:evenodd;"/></g><g id="t"><polygon points="208.1723 47.4794 202.9923 47.4794 204.4553 43.4734 206.7093 43.4734 208.1723 47.4794" style="fill:#aebbce; fill-rule:evenodd;"/></g><g id="u"><path d="M206.0634,42.6361h-.961c-.13,0-.215-.177-.159-.33l.481-1.317c.065-.175,.255-.174,.319,.001l.479,1.317c.056,.153-.029,.329-.159,.329h0Z" style="fill:#212c3d; fill-rule:evenodd;"/></g><g id="v"><path d="M198.6943,61.0681h0c-1.826,0-3.307-1.481-3.307-3.307v-13.826c0-1.826,1.481-3.307,3.307-3.307s3.307,1.481,3.307,3.307v13.826c0,1.826-1.481,3.307-3.307,3.307h0Z" style="fill:#aebbce; fill-rule:evenodd;"/></g><g id="w"><path d="M193.7676,55.6187c-.223,0-.403-.18-.403-.403v-6.839c0-1.164,.947-2.111,2.112-2.111h1.53c.223,0,.404,.18,.404,.403,0,.222-.181,.403-.404,.403h-1.53c-.72,0-1.306,.586-1.306,1.305v6.839c0,.223-.18,.403-.403,.403h0Z" style="fill:#aebbce; fill-rule:evenodd;"/></g><g id="x"><polygon points="183.309 58.0448 214.582 58.0448 214.582 56.4328 183.309 56.4328 183.309 58.0448" style="fill:#fff; fill-rule:evenodd;"/></g><g id="y"><polygon points="195.388 47.0718 202.001 47.0718 202.001 46.2658 195.388 46.2658 195.388 47.0718" style="fill:#fff; fill-rule:evenodd;"/></g><g id="a`"><polygon points="202.992 47.8808 209.606 47.8808 209.606 47.0748 202.992 47.0748 202.992 47.8808" style="fill:#fff; fill-rule:evenodd;"/></g><g id="aa"><path d="M182.427,68.0272l.724-7.452c.139-1.434,1.344-2.527,2.784-2.527h27.223c1.441,0,2.645,1.093,2.785,2.527l.724,7.452h-34.24Z" style="fill:#e0e5f0; fill-rule:evenodd;"/></g><g style="mask:url(#ab);"><g id="ae"><path d="M45.8554,8.3038H118.4464c6.9,0,12.848,4.853,14.234,11.612l12.897,62.919c1.107,5.404-3.021,10.464-8.536,10.464H65.2044c-9.34,0-17.392-6.569-19.268-15.72l-9.181-44.788-2.184-10.655c-1.464-7.143,3.993-13.832,11.284-13.832" style="fill:#f3f6fc; fill-rule:evenodd;"/></g></g><g style="mask:url(#af);"><g id="ai"><path d="M62.2992,14.4686c0,.375,.107,.717,.295,.998,.268,.409,.703,.677,1.193,.677,.824,0,1.494-.75,1.494-1.675,0-.067,0-.127-.014-.194-.073-.771-.623-1.381-1.313-1.468-.054,0-.114-.006-.167-.006-.523,0-.979,.301-1.247,.757-.154,.261-.241,.576-.241,.911" style="fill:#212c3d; fill-rule:evenodd;"/></g></g><g style="mask:url(#aj);"><g id="am"><path d="M62.2992,.4639c3.022,0,5.475,3.364,5.475,7.505,0,.107,0,.214-.007,.315-.074,2.519-1.052,4.711-2.5,5.99-.777,.691-1.688,1.119-2.673,1.193-.188-.281-.295-.623-.295-.998,0-.335,.087-.65,.241-.912,.268-.455,.724-.757,1.247-.757,.053,0,.113,.007,.167,.007,.865-.864,1.441-2.399,1.441-4.155,0-.127,0-.247-.007-.368-.121-2.546-1.461-4.557-3.089-4.557s-2.968,2.011-3.089,4.557h-2.379c-.007-.107-.007-.208-.007-.315,0-4.141,2.453-7.505,5.475-7.505" style="fill:#aebbce; fill-rule:evenodd;"/></g></g><g style="mask:url(#an);"><g id="aq"><path d="M62.5375,13.5572c.523-.06,.998-.322,1.414-.75-.054,0-.114-.007-.168-.007-.522,0-.978,.301-1.246,.757" style="fill:#212c3d; fill-rule:evenodd;"/></g></g><g style="mask:url(#ar);"><g id="au"><path d="M105.9241,14.4686c0,.375,.107,.717,.295,.998,.268,.409,.703,.677,1.193,.677,.824,0,1.494-.75,1.494-1.675,0-.067,0-.127-.014-.194-.073-.771-.623-1.381-1.313-1.468-.053,0-.114-.006-.167-.006-.523,0-.979,.301-1.247,.757-.154,.261-.241,.576-.241,.911" style="fill:#212c3d; fill-rule:evenodd;"/></g></g><g style="mask:url(#av);"><g id="ay"><path d="M105.9241,.4639c3.022,0,5.475,3.364,5.475,7.505,0,.107,0,.214-.007,.315-.074,2.519-1.052,4.711-2.5,5.99-.777,.691-1.688,1.119-2.673,1.193-.188-.281-.295-.623-.295-.998,0-.335,.087-.65,.241-.912,.268-.455,.724-.757,1.247-.757,.053,0,.114,.007,.167,.007,.865-.864,1.441-2.399,1.441-4.155,0-.127,0-.247-.007-.368-.121-2.546-1.461-4.557-3.089-4.557s-2.968,2.011-3.089,4.557h-2.379c-.007-.107-.007-.208-.007-.315,0-4.141,2.453-7.505,5.475-7.505" style="fill:#aebbce; fill-rule:evenodd;"/></g></g><g style="mask:url(#b`);"><g id="bc"><path d="M106.1625,13.5572c.523-.06,.998-.322,1.414-.75-.054,0-.114-.007-.168-.007-.522,0-.978,.301-1.246,.757" style="fill:#212c3d; fill-rule:evenodd;"/></g></g><g style="mask:url(#bd);"><g id="bg"><polygon points="37.0974 34.5195 135.6633 34.5195 134.8882 30.5195 36.3104 30.5195 37.0974 34.5195" style="fill:#fff; fill-rule:evenodd;"/></g></g><g style="mask:url(#bh);"><g id="bk"><path d="M57.6546,44.4633h10.4238c.9907,0,1.8448,.6851,2.0437,1.6394l1.852,8.8836c.1591,.7629-.4338,1.4772-1.2256,1.4772h-10.3153c-1.3415,0-2.4976-.9271-2.7668-2.2191l-1.3185-6.3237-.3136-1.5043c-.2102-1.0087,.5732-1.9531,1.6204-1.9531" style="fill:#aebbce; fill-rule:evenodd;"/></g></g><g style="mask:url(#bl);"><g id="bo"><path d="M83.6546,44.4633h10.4238c.9907,0,1.8448,.6851,2.0437,1.6394l1.852,8.8836c.1591,.7629-.4338,1.4772-1.2256,1.4772h-10.3153c-1.3415,0-2.4976-.9271-2.7668-2.2191l-1.3185-6.3237-.3136-1.5043c-.2102-1.0087,.5732-1.9531,1.6204-1.9531" style="fill:#fff; fill-rule:evenodd;"/></g></g><g id="bp"><line x1="61" y1="53.4635" x2="67" y2="47.4635" style="fill:none;"/></g><g id="bq"><path d="M61.3832,54.4635c-.0954,0-.1912-.0402-.2656-.1205-.1525-.1654-.1575-.4388-.0107-.6107l5.2339-6.136c.1464-.1719,.3886-.1779,.5419-.0121,.1521,.165,.1571,.4384,.0103,.6103l-5.2335,6.1364c-.0755,.0881-.1755,.1326-.2763,.1326" style="fill:#fff; fill-rule:evenodd;"/><path d="M61.3834,54.9637c-.2363,0-.4668-.1025-.6323-.2808-.3247-.3516-.335-.9116-.0239-1.2759l5.2334-6.1353c.1631-.1909,.3965-.3032,.6406-.3081,.2559-.0034,.4795,.0981,.6489,.2817,.3232,.3501,.3335,.9097,.0234,1.2734l-5.2339,6.1367c-.1665,.1953-.4058,.3081-.6562,.3081Z" style="fill:#fff;"/></g><g id="br"><path d="M68.5697,54.4635c-.0898,0-.1801-.0281-.2574-.0864l-8.1402-6.1364c-.1899-.143-.2286-.4138-.0859-.6047,.1422-.1905,.4121-.2293,.6012-.0859l8.1407,6.136c.1899,.143,.2286,.4138,.0859,.6047-.0847,.1132-.2131,.1728-.3442,.1728" style="fill:#fff; fill-rule:evenodd;"/><path d="M68.5695,54.9637c-.2017,0-.394-.0645-.5571-.186l-8.1411-6.1377c-.4092-.3071-.4927-.8921-.1855-1.3032,.1489-.1997,.3672-.3291,.6147-.3643,.2451-.0342,.4907,.0283,.689,.1797l8.1392,6.1343c.4097,.3086,.4927,.8936,.1851,1.3042-.1763,.2368-.4478,.373-.7441,.373Z" style="fill:#fff;"/></g><g style="mask:url(#bs);"><g id="bv"><path d="M84.6546,44.4633h10.4238c.9907,0,1.8448,.6851,2.0437,1.6394l1.852,8.8836c.1591,.7629-.4338,1.4772-1.2256,1.4772h-10.3153c-1.3415,0-2.4976-.9271-2.7668-2.2191l-1.3185-6.3237-.3136-1.5043c-.2102-1.0087,.5732-1.9531,1.6204-1.9531" style="fill:#fff; fill-rule:evenodd;"/></g></g><g style="mask:url(#bw);"><g id="c`"><path d="M110.6546,44.4633h10.4238c.9907,0,1.8448,.6851,2.0437,1.6394l1.852,8.8836c.1591,.7629-.4338,1.4772-1.2256,1.4772h-10.3153c-1.3415,0-2.4976-.9271-2.7668-2.2191l-1.3185-6.3237-.3136-1.5043c-.2102-1.0087,.5732-1.9531,1.6204-1.9531" style="fill:#fff; fill-rule:evenodd;"/></g></g><g style="mask:url(#ca);"><g id="cd"><path d="M112.6546,44.4633h10.4238c.9907,0,1.8448,.6851,2.0437,1.6394l1.852,8.8836c.1591,.7629-.4338,1.4772-1.2256,1.4772h-10.3153c-1.3415,0-2.4976-.9271-2.7668-2.2191l-1.3185-6.3237-.3136-1.5043c-.2102-1.0087,.5732-1.9531,1.6204-1.9531" style="fill:#fff; fill-rule:evenodd;"/></g></g><g style="mask:url(#ce);"><g id="ch"><path d="M138.6546,44.4633h10.4238c.9907,0,1.8448,.6851,2.0437,1.6394l1.852,8.8836c.1591,.7629-.4338,1.4772-1.2256,1.4772h-10.3153c-1.3415,0-2.4976-.9271-2.7668-2.2191l-1.3185-6.3237-.3136-1.5043c-.2102-1.0087,.5732-1.9531,1.6204-1.9531" style="fill:#fff; fill-rule:evenodd;"/></g></g><g style="mask:url(#ci);"><g id="cl"><path d="M62.6546,67.4633h10.4238c.9907,0,1.8448,.6851,2.0437,1.6394l1.852,8.8836c.1591,.7629-.4338,1.4772-1.2256,1.4772h-10.3153c-1.3415,0-2.4976-.9271-2.7668-2.2191l-1.3185-6.3237-.3136-1.5043c-.2102-1.0087,.5732-1.9531,1.6204-1.9531" style="fill:#fff; fill-rule:evenodd;"/></g></g><g style="mask:url(#cm);"><g id="cp"><path d="M88.6546,67.4633h10.4238c.9907,0,1.8448,.6851,2.0437,1.6394l1.852,8.8836c.1591,.7629-.4338,1.4772-1.2256,1.4772h-10.3153c-1.3415,0-2.4976-.9271-2.7668-2.2191l-1.3185-6.3237-.3136-1.5043c-.2102-1.0087,.5732-1.9531,1.6204-1.9531" style="fill:#fff; fill-rule:evenodd;"/></g></g><g style="mask:url(#cq);"><g id="ct"><path d="M90.6546,67.4633h10.4238c.9907,0,1.8448,.6851,2.0437,1.6394l1.852,8.8836c.1591,.7629-.4338,1.4772-1.2256,1.4772h-10.3153c-1.3415,0-2.4976-.9271-2.7668-2.2191l-1.3185-6.3237-.3136-1.5043c-.2102-1.0087,.5732-1.9531,1.6204-1.9531" style="fill:#fff; fill-rule:evenodd;"/></g></g><g style="mask:url(#cu);"><g id="cx"><path d="M116.6546,67.4633h10.4238c.9907,0,1.8448,.6851,2.0437,1.6394l1.852,8.8836c.1591,.7629-.4338,1.4772-1.2256,1.4772h-10.3153c-1.3415,0-2.4976-.9271-2.7668-2.2191l-1.3185-6.3237-.3136-1.5043c-.2102-1.0087,.5732-1.9531,1.6204-1.9531" style="fill:#fff; fill-rule:evenodd;"/></g></g><g style="mask:url(#cy);"><g id="db"><polygon points="0 94.3038 179.1441 94.3038 247.08 94.3038 247.08 93.3038 0 93.3038 0 94.3038" style="fill:#ebedf5; fill-rule:evenodd;"/></g></g></svg>