<?xml version="1.0" encoding="utf-8"?>
<!-- Generator: Adobe Illustrator 26.2.1, SVG Export Plug-In . SVG Version: 6.00 Build 0)  -->
<svg version="1.1" id="Layer_1" xmlns="http://www.w3.org/2000/svg" xmlns:xlink="http://www.w3.org/1999/xlink" x="0px" y="0px"
	 viewBox="0 0 512 512" enable-background="new 0 0 512 512" xml:space="preserve">
<g>
	<defs>
		<circle id="SVGID_00000093882163829338803270000009967277815019258775_" cx="9662.9" cy="-317.5" r="218.9"/>
	</defs>
	<clipPath id="SVGID_00000001629368536055238480000003961472123322723458_">
		<use xlink:href="#SVGID_00000093882163829338803270000009967277815019258775_"  overflow="visible"/>
	</clipPath>
	<g clip-path="url(#SVGID_00000001629368536055238480000003961472123322723458_)">
		<defs>
			
				<rect id="SVGID_00000035519269259306736240000013118855255411252143_" x="-1178.9" y="-4778.8" width="24242.7" height="13468.2"/>
		</defs>
		<clipPath id="SVGID_00000011736582853518875000000006336381791299148455_">
			<use xlink:href="#SVGID_00000035519269259306736240000013118855255411252143_"  overflow="visible"/>
		</clipPath>
	</g>
</g>
<g>
	<defs>
		<path id="SVGID_00000013910442816594213770000007083296992956148158_" d="M9662.7-250.9l51.2-50.4c6.6-6.5,6.7-17.2,0.2-23.8
			c-0.1-0.1-0.1-0.1-0.2-0.2l-51.2-50.4c-6.7-6.6-17.5-6.6-24.2,0c-6.7,6.6-6.7,17.2,0,23.8l39.2,38.6l-39.2,38.6
			c-3.2,3.2-5,7.4-5,11.9c0,4.5,1.8,8.7,5,11.9C9645.1-244.3,9656-244.3,9662.7-250.9z"/>
	</defs>
	<clipPath id="SVGID_00000142860327709693639870000007693541090627621042_">
		<use xlink:href="#SVGID_00000013910442816594213770000007083296992956148158_"  overflow="visible"/>
	</clipPath>
	<g clip-path="url(#SVGID_00000142860327709693639870000007693541090627621042_)">
		<defs>
			
				<rect id="SVGID_00000052795244771709581130000006103612913088478600_" x="-1178.9" y="-4778.8" width="24242.7" height="13468.2"/>
		</defs>
		<clipPath id="SVGID_00000086670333255396004030000000527154639065985205_">
			<use xlink:href="#SVGID_00000052795244771709581130000006103612913088478600_"  overflow="visible"/>
		</clipPath>
	</g>
</g>
<g>
	<g>
		<path fill="#408dfb" d="M413.5,86H188.4c-23.3,0-45.8,10.5-61.7,28.7l-81.6,93.6c-23.9,27.4-23.8,70.3,0.3,97.5l81.4,92
			c15.9,18,38.2,28.3,61.3,28.3h225.4c39.2,0,71.2-34.2,71.2-76.4V162.3C484.7,120.2,452.8,86,413.5,86z M440.6,349.7
			c0,17.8-12.2,32.3-27.1,32.3H188.2c-10.6,0-20.6-4.8-28.3-13.4l-81.4-92c-9.4-10.6-9.5-28.7-0.1-39.4l81.6-93.5
			c7.7-8.8,17.8-13.6,28.5-13.6h225.1c15,0,27.1,14.5,27.1,32.3V349.7z"/>
	</g>
	<g>
		<g>
			<path fill="#408dfb" d="M350.7,289.7c8.2,8.2,8.2,21.5,0,29.7c-4.1,4.1-9.5,6.2-14.8,6.2c-5.4,0-10.8-2.1-14.8-6.2l-33.7-33.7
				l-33.7,33.7c-4.1,4.1-9.5,6.2-14.8,6.2c-5.4,0-10.8-2.1-14.9-6.2c-8.2-8.2-8.2-21.5,0-29.7l33.7-33.7l-33.7-33.7
				c-8.2-8.2-8.2-21.5,0-29.7c8.2-8.2,21.5-8.2,29.7,0l33.7,33.7l33.7-33.7c8.2-8.2,21.5-8.2,29.7,0c8.2,8.2,8.2,21.5,0,29.7
				L317,256L350.7,289.7z"/>
		</g>
	</g>
</g>
</svg>
